<?xml version="1.0" encoding="utf-8"?>
<!-- Generator: Adobe Illustrator 27.2.0, SVG Export Plug-In . SVG Version: 6.00 Build 0)  -->
<svg version="1.1" xmlns="http://www.w3.org/2000/svg" xmlns:xlink="http://www.w3.org/1999/xlink" x="0px" y="0px"
	 viewBox="0 0 640.1 175" style="enable-background:new 0 0 640.1 175;" xml:space="preserve">
<style type="text/css">
	.st0{fill:none;}
	.st1{fill:#2F2FA2;}
	.st2{fill:#F64C72;}
</style>
<g id="CLB_Logo">
</g>
<g id="Ebene_1">
	<rect class="st0" width="640.1" height="175"/>
	<g>
		<path class="st1" d="M231.1,160.3h-12.6V142h12.6v4h-7.9v3h7v3.9h-7v3.3h7.9V160.3z"/>
		<path class="st1" d="M236.8,139.1c1.6,0,2.8,0.8,2.8,2.6c0,1.7-1.2,2.5-2.8,2.5c-1.5,0-2.7-0.9-2.7-2.5
			C234.1,139.9,235.3,139.1,236.8,139.1z M239.1,146v14.3h-4.6V146H239.1z"/>
		<path class="st1" d="M247.4,148.7c0.8-2.1,2.4-3.1,4.6-3.1c2.1,0,4.2,1.3,4.2,4.6v10.1h-4.6V152c0-1.5-0.3-2.5-1.7-2.5
			c-1.2,0-2.4,0.7-2.4,3.1v7.8h-4.6V146h4L247.4,148.7z"/>
		<path class="st1" d="M267,160.3V142h6.9c4.7,0,6.7,2.2,6.7,6.4c0,4-2.4,6.3-6.3,6.3h-2.6v5.6H267z M271.6,150.9h2
			c1.6,0,2.3-0.7,2.3-2.3c0-1.8-0.7-2.6-2.3-2.6h-2V150.9z"/>
		<path class="st1" d="M293.2,150.7c-0.6-0.2-1-0.3-1.7-0.3c-1.5,0-3.6,0.6-3.6,3.5v6.3h-4.6V146h4l0.6,4c0.6-2.5,1.9-4.5,5.9-4.3
			L293.2,150.7z"/>
		<path class="st1" d="M294.7,153.1c0-4.9,2.8-7.5,7.1-7.5s7.1,2.6,7.1,7.5c0,4.8-2.8,7.6-7.1,7.6S294.7,157.9,294.7,153.1z
			 M299.2,153.1c0,2.8,0.8,4,2.5,4s2.5-1.2,2.5-4c0-2.6-0.8-3.8-2.5-3.8S299.2,150.5,299.2,153.1z"/>
		<path class="st1" d="M316.2,146v14c0,4.7-3.6,6.9-8.6,6.5v-3.9c2.6,0.4,4-0.1,4-3.6V146H316.2z M313.9,139.1
			c1.6,0,2.8,0.8,2.8,2.6c0,1.7-1.2,2.5-2.8,2.5c-1.5,0-2.7-0.9-2.7-2.5C311.1,139.9,312.3,139.1,313.9,139.1z"/>
		<path class="st1" d="M328.5,155.3l3.9,1.4c-0.8,2.9-3.4,3.9-6.3,3.9c-4.2,0-7.1-2.7-7.1-7.3c0-5,2.7-7.8,7.1-7.8
			c4.2,0,6.2,2.7,6.2,6.4c0,0.6-0.1,1.2-0.2,1.9h-8.7c0.1,2,1,3.2,2.7,3.2C327.1,157.1,328,156.8,328.5,155.3z M327.9,151.5
			c0-0.2,0-0.3,0-0.4c0-1.2-0.6-2-2-2c-1.4,0-2.3,1.1-2.4,2.5H327.9z"/>
		<path class="st1" d="M349.6,160.3h-5.3l-3.7-5.7h-0.9v5.7h-4.6v-20.7h4.6V151h0.8l3.3-5.1h5.3l-4.7,6.7L349.6,160.3z"/>
		<path class="st1" d="M361.9,159.7c-1.3,0.7-2.9,1-4.7,1c-2.9,0-4.9-1.3-4.9-4.8v-6.4h-2.1V146h2.1v-3l4.6-0.5v3.6h4.2v3.5h-4.3
			v5.3c0,1.5,0.6,2,1.7,2c0.9,0,1.7-0.3,2.5-0.9L361.9,159.7z"/>
		<path class="st1" d="M380.3,139.6h4.6v20.7h-4l-0.6-2.5c-0.5,2.2-2.3,2.9-4.4,2.9c-3.3,0-5.7-2.5-5.7-7.2c0-4.9,2.3-7.8,6.4-7.8
			c1.8,0,3.3,0.8,3.8,2.2V139.6z M380.3,151.8c0-2-1.2-2.8-2.6-2.8c-1.5,0-3,1.1-3,4.2c0,2.5,1.1,3.9,2.9,3.9c1.4,0,2.6-1,2.6-2.9
			V151.8z"/>
		<path class="st1" d="M397.1,155.3l3.9,1.4c-0.8,2.9-3.4,3.9-6.3,3.9c-4.2,0-7.1-2.7-7.1-7.3c0-5,2.7-7.8,7.1-7.8
			c4.2,0,6.2,2.7,6.2,6.4c0,0.6-0.1,1.2-0.2,1.9h-8.7c0.1,2,1,3.2,2.7,3.2C395.8,157.1,396.6,156.8,397.1,155.3z M396.6,151.5
			c0-0.2,0-0.3,0-0.4c0-1.2-0.6-2-2-2c-1.4,0-2.3,1.1-2.4,2.5H396.6z"/>
		<path class="st1" d="M406.1,155.4c0.3,1.5,1.4,2.1,2.7,2.1c1,0,1.7-0.3,1.7-1c0-0.7-0.6-1-1.7-1.3l-2.1-0.5
			c-2.5-0.7-3.7-2.1-3.7-4.3c0-3.7,3-4.7,6-4.7c3.5,0,5.6,1.3,5.8,4.1l-4.3,0.6c-0.2-1.1-0.7-1.3-1.8-1.3c-0.7,0-1.3,0.3-1.3,0.9
			c0,0.6,0.4,0.9,1.2,1.1l2,0.4c3,0.6,4.3,2.3,4.3,4.7c0,3.3-2.7,4.5-6.3,4.5c-3.6,0-5.8-1-6.4-3.7L406.1,155.4z"/>
		<path class="st1" d="M440.6,156.4c-1.7,2.9-3.8,4.3-8,4.3c-5,0-8.5-3.5-8.5-9.5s3.3-9.5,9.1-9.5c3.9,0,6.3,1.8,7.6,4.7l-4.5,2.2
			c-0.5-1.7-1.3-2.8-3.2-2.8c-2.6,0-4.2,2-4.2,5.5c0,3.3,1.4,5.3,4.3,5.3c1.5,0,2.8-0.8,3.4-2.5L440.6,156.4z"/>
		<path class="st1" d="M445.4,139.1c1.6,0,2.8,0.8,2.8,2.6c0,1.7-1.2,2.5-2.8,2.5c-1.5,0-2.7-0.9-2.7-2.5
			C442.6,139.9,443.9,139.1,445.4,139.1z M447.7,146v14.3h-4.6V146H447.7z"/>
		<path class="st1" d="M461.5,159.7c-1.3,0.7-2.9,1-4.7,1c-2.9,0-4.9-1.3-4.9-4.8v-6.4h-2.1V146h2.1v-3l4.6-0.5v3.6h4.2v3.5h-4.3
			v5.3c0,1.5,0.6,2,1.7,2c0.9,0,1.7-0.3,2.5-0.9L461.5,159.7z"/>
		<path class="st1" d="M468.7,152.1c0.8,2.8,0.9,4.7,0.9,4.7h0.1c0,0,0.2-1.9,1-4.7l1.9-6.1h4.8l-5.8,15.6c-1.7,4.5-3.7,5.1-6.8,5.1
			c-0.9,0-1.9-0.2-2.7-0.3l0.7-4.1c0.5,0.3,1.2,0.5,1.9,0.5c1.2,0,2-0.5,2.5-1.7L462,146h5L468.7,152.1z"/>
		<path class="st1" d="M484.4,142v14.2h6.8v4h-11.5V142H484.4z"/>
		<path class="st1" d="M505.2,156.9h-6.7l-1.1,3.4h-4.9l6.6-18.3h5.7l6.7,18.3h-5L505.2,156.9z M499.8,153h4.1l-0.5-1.4
			c-1.1-3-1.5-5.3-1.5-5.3h-0.1c0,0-0.5,2.3-1.5,5.3L499.8,153z"/>
		<path class="st1" d="M524.5,151c2.7,0.4,4,2.2,4,4.3c0,3-2,5-6.5,5h-8V142h8c3.7,0,5.6,1.7,5.6,4.6c0,2.3-1.3,3.7-3.3,4.2V151z
			 M521,149.5c1.3,0,2.1-0.5,2.1-1.7c0-1.4-0.8-1.8-2.2-1.8h-2.2v3.6H521z M518.7,156.4h2.9c1.4,0,2.2-0.4,2.2-1.8
			c0-1.1-0.8-1.7-2.2-1.7h-2.9V156.4z"/>
		<path class="st1" d="M549.4,151c2.7,0.4,3.6,2.1,3.6,3.8c0,3.7-2.9,5.5-7.4,5.5h-8l3.2-18.3h7.6c3.8,0,5.2,1.7,5.2,4.1
			c0,2.8-1.9,4.4-4.2,4.7L549.4,151z M543.1,156.4h2.9c1.5,0,2.5-0.6,2.5-2c0-0.9-0.5-1.5-1.9-1.5h-2.9L543.1,156.4z M546.5,149.5
			c1.3,0,2.4-0.5,2.4-2c0-1.1-0.7-1.6-1.9-1.6h-2.1l-0.6,3.6H546.5z"/>
		<path class="st1" d="M564.4,155.3l4.4,1.1c-0.8,2.9-2.8,4.3-6.9,4.3c-4.1,0-6.5-2.4-6.5-6.2c0-5.7,3.8-8.8,7.9-8.8
			s6.1,2.5,6.1,5.2c0,1.1-0.2,2.3-0.6,3.1h-8.5c-0.4,1.9,0.4,3.2,1.9,3.2C563.4,157.1,564.1,156.7,564.4,155.3z M564.8,151.5
			c0-0.2,0.1-0.4,0.1-0.7c0-1-0.3-1.8-1.6-1.8c-1.2,0-2,1.1-2.3,2.5H564.8z"/>
		<path class="st1" d="M582.3,151.2c-2-1.1-4.8-0.8-5.4,2.2l-1.2,6.9h-4.7l2.5-14.3h4.1l-0.1,3.9c1-2.9,3.4-4.8,5.8-4.2L582.3,151.2
			z"/>
		<path class="st1" d="M588.7,155.4c-0.1,0.7-0.1,1.3,0.9,1.3c0.3,0,0.6-0.1,0.9-0.2l-0.7,3.5c-0.8,0.2-1.7,0.4-2.4,0.4
			c-2.8,0-3.9-1.4-3.5-4.2l3-16.7h4.7L588.7,155.4z"/>
		<path class="st1" d="M597.9,155.4c-0.1,0.7-0.1,1.3,0.9,1.3c0.3,0,0.6-0.1,0.9-0.2l-0.7,3.5c-0.8,0.2-1.7,0.4-2.4,0.4
			c-2.8,0-3.9-1.4-3.5-4.2l1.8-10.3h4.7L597.9,155.4z M597.8,139.1c1.6,0,2.8,0.8,2.8,2.6c0,1.7-1.2,2.5-2.8,2.5
			c-1.5,0-2.7-0.9-2.7-2.5C595,139.9,596.3,139.1,597.8,139.1z"/>
		<path class="st1" d="M615.8,155.4c-0.1,0.7-0.1,1.3,0.9,1.3c0.3,0,0.6-0.1,0.9-0.2l-0.7,3.5c-0.8,0.2-1.7,0.4-2.4,0.4
			c-2.8,0-3.9-1.4-3.5-4.2l0.8-4.5c0.2-1.3,0-2.4-1.5-2.4c-1.1,0-2,1-2.4,3.3l-1.3,7.6h-4.7l2.5-14.3h4.1l0.1,2.9
			c0.9-2.1,2.2-3.3,4.6-3.3c2.3,0,3.7,1.5,3.7,3.7c0,0.5,0,0.8-0.1,1.2L615.8,155.4z"/>
	</g>
	<g>
		<path class="st1" d="M253.1,113.8l-15.7-24.5h-3.3v24.5h-15.7V52.2h15.7v23.5h3.4l14.3-23.5h18L251.1,82l20.8,31.8H253.1z"/>
		<path class="st1" d="M286.9,42.3c5.4,0,9.5,2.8,9.5,8.7c0,5.6-4.1,8.6-9.5,8.6c-5,0-9.2-2.9-9.2-8.6
			C277.7,45.1,281.9,42.3,286.9,42.3z M294.6,65.5v48.3h-15.5V65.5H294.6z"/>
		<path class="st1" d="M335.9,97.1l13.2,4.7c-2.7,9.7-11.6,13.3-21.1,13.3c-14.1,0-23.9-9.1-23.9-24.6c0-16.7,9.1-26.1,24-26.1
			c14,0,20.8,9.1,20.8,21.6c0,2-0.2,4.1-0.6,6.3H319c0.2,6.7,3.3,10.9,9.2,10.9C331.4,103.1,334.4,102,335.9,97.1z M334,84.1
			c0.1-0.5,0.1-0.9,0.1-1.5c0-4-2.1-6.9-6.6-6.9c-4.7,0-7.7,3.7-8.2,8.4H334z"/>
		<path class="st1" d="M379.4,94.3c-3.9,5.1-6.8,7.6-6.8,7.6v0.4c0,0,3-0.5,8.2-0.5h14.1v11.9h-39.5v-9.5l13.8-19.1
			c3.8-5.1,6.8-7.6,6.8-7.6v-0.4c0,0-3,0.5-8.2,0.5h-11.7V65.5h37.8v9.6L379.4,94.3z"/>
		<path class="st1" d="M426.2,113.4c-2.8,0.8-5.9,1.5-8.8,1.5c-7.3,0-14.2-3.3-14.2-13V44h15.5v53.1c0,3,2,4.1,4.5,4.1
			c1.1,0,2.6-0.2,3.9-0.7L426.2,113.4z"/>
		<path class="st1" d="M474.1,98.1c0,3.1,1.3,4.4,3.4,4.4c1.1,0,2.2-0.4,3.1-0.8v11.1c-2.2,1.5-5.1,2-8.8,2c-6.4,0-10.2-2.3-12-7.5
			c-2.2,6-7.2,7.8-14,7.8c-8.6,0-14.1-5-14.1-13.4c0-10.8,8.8-16.5,27-15.5v-4.1c0-3.7-1.1-6.2-4.6-6.2c-3.3,0-4.9,2.6-5.1,6.8
			l-15.6-2.9c0.7-10.2,9.3-15.5,21.1-15.5c13,0,19.5,5.6,19.5,16.3V98.1z M458.7,94.2c-8.8-0.3-11.5,2.2-11.5,5.9
			c0,2.4,1.8,4.1,4.6,4.1c3.1,0,6.9-1.4,6.9-5.7V94.2z"/>
		<path class="st1" d="M499.5,113.8h-11V44H504v30.4c2.7-7.3,8.8-10,15.7-10c11.8,0,18.5,8.9,18.5,24.1c0,16.2-7.5,26.5-20.6,26.5
			c-8.3,0-12.9-3.7-14.2-8.3L499.5,113.8z M503.9,93.6c0,7.9,4.7,10.3,8.5,10.3c5.5,0,10.2-4.6,10.2-14.1c0-9.4-3.7-13.2-9.4-13.2
			c-4.5,0-9.3,3.8-9.3,10.6V93.6z"/>
		<path class="st1" d="M544.4,89.5c0-16.4,9.5-25.2,23.8-25.2s23.8,8.8,23.8,25.2c0,16.3-9.5,25.5-23.8,25.5S544.4,105.8,544.4,89.5
			z M559.7,89.6c0,9.3,2.7,13.4,8.6,13.4s8.6-4.1,8.6-13.4c0-8.8-2.8-13-8.6-13S559.7,80.9,559.7,89.6z"/>
		<path class="st1" d="M634.8,81.5c-2-0.6-3.4-0.9-5.9-0.9c-5,0-12,1.9-12,11.9v21.3h-15.5V65.5H615l1.9,13.4
			c2.1-8.4,6.5-15.3,19.9-14.4L634.8,81.5z"/>
	</g>
	<path class="st2" d="M53.3,175c-5,0-10-1.6-14.2-4.6l-29-20.9C3.8,145,0,137.6,0,129.8V61.6c0-11.9,8.9-22.2,20.7-24l102.4-15.3h0
		c2.8-0.4,5.6-0.3,8.3,0.2l34,6.8C176.8,31.5,185,41.5,185,53v58c0,10.1-6.4,19.3-15.9,22.8L61.7,173.5C59,174.5,56.1,175,53.3,175z
		 M125.8,40.1L23.3,55.3c-3,0.5-5.3,3.1-5.3,6.2v68.3c0,2,1,3.9,2.6,5.1l29,20.9c1.7,1.2,3.9,1.5,5.8,0.8l107.4-39.7
		c2.5-0.9,4.1-3.3,4.1-5.9V53c0-3-2.1-5.6-5-6.2l-34-6.8C127.2,40,126.5,40,125.8,40.1z"/>
</g>
</svg>
