<svg xmlns="http://www.w3.org/2000/svg" width="221" height="53" viewBox="0 0 221 53"><g fill="none" transform="translate(.908 .023)"><path fill="#000" d="M78.6524424,9.1399053 C78.6524424,12.3521612 77.5351129,13.7339036 74.7711924,13.7339036 C72.0543174,13.7339036 70.878181,12.2931124 70.878181,9.1399053 C70.878181,5.98669821 72.0190333,4.56952651 74.7711924,4.56952651 C77.5351129,4.56952651 78.6524424,5.98669821 78.6524424,9.1399053 Z M76.5824424,9.1399053 C76.5824424,6.89605008 76.1237492,6.35280093 74.7711924,6.35280093 C73.430397,6.35280093 72.9599424,6.89605008 72.9599424,9.1399053 C72.9599424,11.3837605 73.4421583,11.9506292 74.7829538,11.9506292 C76.1119879,11.9506292 76.5824424,11.3719508 76.5824424,9.1399053 Z M87.6603401,7.74635311 C87.6603401,9.61229585 86.6723856,10.6869844 84.2142606,10.6869844 L83.0381242,10.6869844 L83.0381242,13.5685669 L81.0504538,13.5685669 L81.0504538,4.71124367 L84.2142606,4.71124367 C86.6606242,4.71124367 87.6603401,5.67964434 87.6603401,7.74635311 Z M85.6138629,7.73454336 C85.6138629,6.67166457 85.2374992,6.37642045 84.2142606,6.37642045 L83.0381242,6.37642045 L83.0381242,9.09266622 L84.2142606,9.09266622 C85.1904538,9.09266622 85.6138629,8.84466118 85.6138629,7.73454336 Z M91.8931242,11.8325316 L95.9507947,11.8325316 L95.9037492,13.5685669 L89.9054538,13.5685669 L89.9054538,4.71124367 L95.7273288,4.71124367 L95.7626129,6.47089857 L91.8931242,6.47089857 L91.8931242,8.23055343 L95.151022,8.23055343 L95.151022,9.81306185 L91.8931242,9.81306185 L91.8931242,11.8325316 Z M105.346817,13.5685669 L103.958976,13.5685669 L100.536419,8.7383733 L100.007158,7.94711911 L99.9836352,7.95892887 L99.9953972,8.91551978 L99.9953972,13.5685669 L98.2311924,13.5685669 L98.2311924,4.71124367 L99.9248292,4.71124367 L103.065113,9.28162246 L103.594374,10.0728767 L103.617897,10.0610669 L103.594374,9.11628578 L103.594374,4.71124367 L105.346817,4.71124367 L105.346817,13.5685669 Z M122.257044,9.10447598 C122.257044,12.3049222 120.92801,13.5685669 118.316988,13.5685669 L114.988522,13.5685669 L114.988522,4.71124367 L118.293465,4.71124367 C121.092669,4.71124367 122.257044,6.04574705 122.257044,9.10447598 Z M120.175283,9.09266622 C120.175283,6.9905282 119.669544,6.49451809 118.269942,6.49451809 L116.976192,6.49451809 L116.976192,11.7971023 L118.281704,11.7971023 C119.63426,11.7971023 120.175283,11.360141 120.175283,9.09266622 Z M129.86534,13.5685669 L129.371363,11.8443413 L126.172272,11.8443413 L125.678294,13.5685669 L123.584772,13.5685669 L126.630965,4.71124367 L128.994999,4.71124367 L132.076476,13.5685669 L129.86534,13.5685669 Z M127.783579,6.21108373 L127.53659,7.14405512 L126.654488,10.1791646 L128.900908,10.1791646 L128.05409,7.14405512 L127.818863,6.21108373 L127.783579,6.21108373 Z M139.284885,6.50632785 L136.90909,6.50632785 L136.90909,13.5685669 L134.909658,13.5685669 L134.909658,6.50632785 L132.545624,6.50632785 L132.592669,4.71124367 L139.23784,4.71124367 L139.284885,6.50632785 Z M146.034601,13.5685669 L145.540624,11.8443413 L142.341533,11.8443413 L141.847556,13.5685669 L139.754033,13.5685669 L142.800226,4.71124367 L145.16426,4.71124367 L148.245738,13.5685669 L146.034601,13.5685669 Z M143.95284,6.21108373 L143.705851,7.14405512 L142.823749,10.1791646 L145.070169,10.1791646 L144.223351,7.14405512 L143.988124,6.21108373 L143.95284,6.21108373 Z M71.3368742,29.9710173 L71.3368742,21.1136941 L73.3598288,21.1136941 L73.3598288,29.9710173 L71.3368742,29.9710173 Z M83.320397,29.9710173 L81.932556,29.9710173 L78.5099992,25.1408238 L77.9807379,24.3495695 L77.9572151,24.3613793 L77.9689765,25.3179702 L77.9689765,29.9710173 L76.204772,29.9710173 L76.204772,21.1136941 L77.8984083,21.1136941 L81.0386924,25.6840729 L81.5679538,26.4753271 L81.5914765,26.4635173 L81.5679538,25.5187362 L81.5679538,21.1136941 L83.320397,21.1136941 L83.320397,29.9710173 Z M91.8931242,22.9087783 L88.0236356,22.9087783 L88.0236356,24.8219601 L91.2462492,24.8219601 L91.2227265,26.5225662 L88.0236356,26.5225662 L88.0236356,29.9710173 L86.0477265,29.9710173 L86.0477265,21.1136941 L91.8578401,21.1136941 L91.8931242,22.9087783 Z M101.383238,25.5423558 C101.383238,28.7546116 100.265908,30.1363541 97.5019879,30.1363541 C94.7851129,30.1363541 93.6089765,28.6955628 93.6089765,25.5423558 C93.6089765,22.3891487 94.7498288,20.971977 97.5019879,20.971977 C100.265908,20.971977 101.383238,22.3891487 101.383238,25.5423558 Z M99.3132382,25.5423558 C99.3132382,23.2985005 98.8545447,22.7552513 97.5019879,22.7552513 C96.1611924,22.7552513 95.6907379,23.2985005 95.6907379,25.5423558 C95.6907379,27.786211 96.1729538,28.3530796 97.5137492,28.3530796 C98.8427833,28.3530796 99.3132382,27.7744012 99.3132382,25.5423558 Z M110.297044,23.8653692 C110.297044,25.1053945 109.767783,25.979317 108.815113,26.2745611 L110.873351,29.9710173 L108.556363,29.9710173 L107.015624,26.6642833 L105.768919,26.6642833 L105.768919,29.9710173 L103.781249,29.9710173 L103.781249,21.1136941 L107.015624,21.1136941 C109.203238,21.1136941 110.297044,21.9758069 110.297044,23.8653692 Z M108.227044,23.9480376 C108.227044,23.0504955 107.897726,22.7670611 107.027385,22.7670611 L105.768919,22.7670611 L105.768919,25.176253 L106.992101,25.176253 C107.874204,25.176253 108.227044,24.9046285 108.227044,23.9480376 Z M112.824431,21.1136941 L115.012044,21.1136941 L117.058522,26.2863709 L117.38784,27.1721032 L117.423124,27.1721032 L117.752442,26.2863709 L119.810681,21.1136941 L121.998294,21.1136941 L121.998294,29.9710173 L120.187044,29.9710173 L120.187044,25.4596874 L120.210567,24.5030965 L120.175283,24.4912867 L119.845965,25.3888288 L118.034715,29.9710173 L116.717442,29.9710173 L114.917954,25.4006386 L114.588635,24.5030965 L114.565113,24.5149062 L114.576874,25.4714972 L114.576874,29.9710173 L112.824431,29.9710173 L112.824431,21.1136941 Z M130.229942,29.9710173 L129.735965,28.2467918 L126.536874,28.2467918 L126.042897,29.9710173 L123.949374,29.9710173 L126.995567,21.1136941 L129.359601,21.1136941 L132.441079,29.9710173 L130.229942,29.9710173 Z M128.148181,22.6135342 L127.901192,23.5465056 L127.01909,26.581615 L129.26551,26.581615 L128.418692,23.5465056 L128.183465,22.6135342 L128.148181,22.6135342 Z M139.649488,22.9087783 L137.273692,22.9087783 L137.273692,29.9710173 L135.27426,29.9710173 L135.27426,22.9087783 L132.910226,22.9087783 L132.957272,21.1136941 L139.602442,21.1136941 L139.649488,22.9087783 Z M141.80051,29.9710173 L141.80051,21.1136941 L143.823465,21.1136941 L143.823465,29.9710173 L141.80051,29.9710173 Z M154.113351,25.5423558 C154.113351,28.7546116 152.996022,30.1363541 150.232101,30.1363541 C147.515226,30.1363541 146.33909,28.6955628 146.33909,25.5423558 C146.33909,22.3891487 147.479942,20.971977 150.232101,20.971977 C152.996022,20.971977 154.113351,22.3891487 154.113351,25.5423558 Z M152.043351,25.5423558 C152.043351,23.2985005 151.584658,22.7552513 150.232101,22.7552513 C148.891306,22.7552513 148.420851,23.2985005 148.420851,25.5423558 C148.420851,27.786211 148.903067,28.3530796 150.243863,28.3530796 C151.572897,28.3530796 152.043351,27.7744012 152.043351,25.5423558 Z M163.626988,29.9710173 L162.239147,29.9710173 L158.81659,25.1408238 L158.287329,24.3495695 L158.263806,24.3613793 L158.275567,25.3179702 L158.275567,29.9710173 L156.511363,29.9710173 L156.511363,21.1136941 L158.204999,21.1136941 L161.345283,25.6840729 L161.874544,26.4753271 L161.898067,26.4635173 L161.874544,25.5187362 L161.874544,21.1136941 L163.626988,21.1136941 L163.626988,29.9710173 Z M171.964488,27.3138204 C171.964488,29.0616655 170.753067,30.1363541 168.694829,30.1363541 C167.67159,30.1363541 166.730681,29.888349 165.966192,29.4750073 L166.224942,27.7625914 C167.001192,28.1759332 167.800965,28.4121285 168.671306,28.4121285 C169.635738,28.4121285 170.059147,28.0578355 170.059147,27.4437278 C170.059147,26.0501756 166.001476,26.6406638 166.001476,23.676413 C166.001476,22.1765729 166.965908,20.9601672 169.200567,20.9601672 C170.059147,20.9601672 170.988294,21.1373136 171.670454,21.420748 L171.423465,23.0977345 C170.69426,22.8615392 169.965056,22.7198221 169.294658,22.7198221 C168.200851,22.7198221 167.906817,23.0977345 167.906817,23.5701251 C167.906817,24.9518675 171.964488,24.3141402 171.964488,27.3138204 Z M179.80801,27.3138204 C179.80801,29.0616655 178.59659,30.1363541 176.538351,30.1363541 C175.515113,30.1363541 174.574204,29.888349 173.809715,29.4750073 L174.068465,27.7625914 C174.844715,28.1759332 175.644488,28.4121285 176.514829,28.4121285 C177.47926,28.4121285 177.902669,28.0578355 177.902669,27.4437278 C177.902669,26.0501756 173.844999,26.6406638 173.844999,23.676413 C173.844999,22.1765729 174.809431,20.9601672 177.04409,20.9601672 C177.902669,20.9601672 178.831817,21.1373136 179.513976,21.420748 L179.266988,23.0977345 C178.537783,22.8615392 177.808579,22.7198221 177.138181,22.7198221 C176.044374,22.7198221 175.75034,23.0977345 175.75034,23.5701251 C175.75034,24.9518675 179.80801,24.3141402 179.80801,27.3138204 Z M188.169033,22.9087783 L185.793238,22.9087783 L185.793238,29.9710173 L183.793806,29.9710173 L183.793806,22.9087783 L181.429772,22.9087783 L181.476817,21.1136941 L188.121988,21.1136941 L188.169033,22.9087783 Z M192.178352,28.234982 L196.236022,28.234982 L196.188977,29.9710173 L190.190681,29.9710173 L190.190681,21.1136941 L196.012556,21.1136941 L196.04784,22.873349 L192.178352,22.873349 L192.178352,24.6330039 L195.436249,24.6330039 L195.436249,26.2155123 L192.178352,26.2155123 L192.178352,28.234982 Z M200.515852,28.1759332 L204.150113,28.1759332 L204.103068,29.9710173 L198.51642,29.9710173 L198.51642,21.1136941 L200.515852,21.1136941 L200.515852,28.1759332 Z M208.241761,28.1759332 L211.876022,28.1759332 L211.828977,29.9710173 L206.242329,29.9710173 L206.242329,21.1136941 L208.241761,21.1136941 L208.241761,28.1759332 Z M215.955909,28.234982 L220.013579,28.234982 L219.966534,29.9710173 L213.968238,29.9710173 L213.968238,21.1136941 L219.790113,21.1136941 L219.825397,22.873349 L215.955909,22.873349 L215.955909,24.6330039 L219.213806,24.6330039 L219.213806,26.2155123 L215.955909,26.2155123 L215.955909,28.234982 Z M77.570397,43.8934172 C77.570397,45.4641159 76.8411924,46.373468 74.9123288,46.373468 L71.6779538,46.373468 L71.6779538,37.5161446 L74.7359083,37.5161446 C76.3707379,37.5161446 77.1940333,38.2129206 77.1940333,39.6891412 C77.1940333,40.8464981 76.6412492,41.4606058 75.9002833,41.6731816 L75.9002833,41.6968011 C76.9352833,41.9093769 77.570397,42.5825335 77.570397,43.8934172 Z M76.8059083,43.8343686 C76.8059083,42.6297725 76.1707947,42.0747136 74.8770447,42.0747136 L72.4189197,42.0747136 L72.4189197,45.6885014 L74.9240901,45.6885014 C76.1002265,45.6885014 76.8059083,45.2043013 76.8059083,43.8343686 Z M76.4530674,39.8190486 C76.4530674,38.6735015 75.9002833,38.2129206 74.7123856,38.2129206 L72.430681,38.2129206 L72.430681,41.4369863 L74.8064765,41.4369863 C75.9120447,41.4369863 76.4530674,40.8937372 76.4530674,39.8190486 Z M81.5326697,45.6412626 L86.2136924,45.6412626 L86.1784083,46.373468 L80.768181,46.373468 L80.768181,37.5161446 L85.9667038,37.5161446 L86.0019879,38.24835 L81.5326697,38.24835 L81.5326697,41.401557 L85.4021583,41.401557 L85.4021583,42.0629038 L81.5326697,42.0629038 L81.5326697,45.6412626 Z M94.6217606,39.9135267 C94.6217606,41.354318 93.9631242,42.1101429 92.7399424,42.25186 L95.1980674,46.373468 L94.2571583,46.373468 L91.9989765,42.3935772 L89.9524992,42.3935772 L89.9524992,46.373468 L89.1762492,46.373468 L89.1762492,37.5161446 L92.0342606,37.5161446 C93.8102265,37.5161446 94.6217606,38.295589 94.6217606,39.9135267 Z M93.8219879,39.948956 C93.8219879,38.7089307 93.2692038,38.2129206 92.0342606,38.2129206 L89.9524992,38.2129206 L89.9524992,41.75585 L91.9636924,41.75585 C93.245681,41.75585 93.8219879,41.2362203 93.8219879,39.948956 Z M98.6663629,45.6176427 L103.04159,45.6176427 L103.006306,46.373468 L97.8901129,46.373468 L97.8901129,37.5161446 L98.6663629,37.5161446 L98.6663629,45.6176427 Z M105.874772,46.373468 L105.874772,37.5161446 L106.651022,37.5161446 L106.651022,46.373468 L105.874772,46.373468 Z M116.846817,46.373468 L116.27051,46.373468 L111.707101,39.5238045 L111.189601,38.7207405 L111.166079,38.7325503 L111.17784,39.6891412 L111.17784,46.373468 L110.472158,46.373468 L110.472158,37.5161446 L111.236647,37.5161446 L115.647158,44.2004711 L116.164658,45.0035353 L116.188181,44.9917256 L116.164658,44.0469444 L116.152897,37.5161446 L116.846817,37.5161446 L116.846817,46.373468 Z"/><ellipse cx="22.496" cy="30.473" fill="#53B6E7" rx="22.404" ry="22.496" transform="rotate(-90 22.496 30.473)"/><ellipse cx="47.805" cy="5.628" fill="#E60332" rx="5.628" ry="5.651" transform="rotate(-90 47.805 5.628)"/><ellipse cx="22.72" cy="30.628" fill="#16469D" rx="5.628" ry="5.651" transform="rotate(-90 22.72 30.628)"/></g></svg>