<?xml version="1.0" encoding="UTF-8"?>
<!-- Generator: Adobe Illustrator 25.1.0, SVG Export Plug-In . SVG Version: 6.00 Build 0)  -->
<svg version="1.1" id="Ebene_1" xmlns="http://www.w3.org/2000/svg" xmlns:xlink="http://www.w3.org/1999/xlink" x="0px" y="0px" viewBox="0 0 497.4 150" style="enable-background:new 0 0 497.4 150;" xml:space="preserve">
<style type="text/css">
	.st0{fill:#E60032;}
	.st1{fill:#6ECDF5;}
	.st2{fill:#64B9E6;}
	.st3{fill:#2D91D2;}
	.st4{fill:#375AA5;}
	.st5{fill:#1E3791;}
</style>
<g id="Schriftzug">
	<path d="M302.4,103v24.2h11.4l-0.1,3.3h-14.8V103H302.4z M245.7,103v27.5h15.7l0.1-3.3h-12.3v-9.5h10.1v-3h-10.1v-8.4h11.8   l-0.1-3.3H245.7z M284.3,110.9c0-3.6-1.4-4.8-4.5-4.8H275v9.7h4.7C282.9,115.8,284.3,114.6,284.3,110.9z M283,118l6.6,12.4h-4.1   l-5.6-11.8H275v11.8h-3.5V103h8.2c5.5,0,8.1,2.4,8.1,7.8C287.9,115.1,286.2,117.4,283,118z M226.9,127.4c3,0,4.7-1.2,4.7-5   c0-3.4-1.5-4.8-4.8-4.8h-5.8v9.8H226.9z M220.9,114.8h5.6c2.9,0,4.1-1.4,4.1-4.4c0-3.2-1.3-4.3-4.3-4.3h-5.5V114.8z M230.4,115.9   c2.9,0.7,4.6,2.8,4.6,6.7c0,5-2.3,7.8-8.2,7.8h-9.3V103h9c5,0,7.6,2.2,7.6,6.8C234.1,113.2,232.6,115.1,230.4,115.9L230.4,115.9z    M323.1,130.4h3.5V103h-1.8h-1.8V130.4z M354.4,103v17.9l0.1,2.9l-0.1,0l-1.5-2.6L342,103h-3.2v27.5h3.1V112l0-3l0.1,0l1.5,2.6   l11.5,18.9h2.5V103H354.4z M406.1,74.8c-0.8,0.2-1.6,0.3-2.6,0.3c-4.2,0-5.7-1.8-5.7-8.9c0-7,1.5-8.9,6.4-8.9c2.1,0,4.3,0.4,6,1.1   l0.6-5.1c-1.9-0.8-4.5-1.2-6.9-1.2c-8.5,0-12.1,4.4-12.1,14.3c0,9.6,3.2,14.2,11.9,14.2c2.8,0,5.7-0.6,7.6-1.5V65.1h-5.2V74.8z    M272.8,52.5h-2.9h-2.9V80h5.9V52.5z M246.4,80h5.8V57.9h6.7l-0.1-5.4h-18.9l-0.1,5.4h6.7V80z M224,75.3c-2.5,0-4.7-0.7-6.8-1.8   l-0.8,5.1c2.1,1.2,4.8,1.9,7.7,1.9c5.9,0,9.4-3.2,9.4-8.6c0-9-11.4-7.4-11.4-11.8c0-1.5,0.9-2.7,4-2.7c1.9,0,3.8,0.4,5.9,1.1l0.7-5   c-1.9-0.9-4.4-1.4-6.9-1.4c-6.3,0-9.2,3.6-9.2,8.2c0,9,11.4,7.4,11.4,11.9C227.9,74.2,226.7,75.3,224,75.3z M377.5,66.2l0.1,2.9   l-0.1,0l-10.2-16.7h-4.9V80h5.1V65.5l0-3l0.1,0l1.5,2.6l9.4,14.9h4.1V52.5h-5.1V66.2z M298,64h-9v-6.1h10.7l-0.1-5.4h-16.4V80h5.8   V69.1h8.9L298,64z M352.5,70.6V52.5h-5.7v18.1c0,3.2-1.2,4.5-4.3,4.5c-3.1,0-4.4-1.4-4.4-4.5V52.5h-5.8v18.1   c0,6.6,3.5,9.8,10.1,9.8S352.5,77.2,352.5,70.6z M324.9,52.5H306l-0.1,5.4h6.7V80h5.8V57.9h6.7L324.9,52.5z M342.7,28V0.5h-5.1   v13.7l0.1,2.9l-0.1,0L327.5,0.5h-4.9V28h5.1V13.5l0-3l0.1,0l1.5,2.6l9.4,14.9C338.6,28,342.7,28,342.7,28z M220.6,28h5.8V5.9h6.7   L233,0.5h-18.9l-0.1,5.4h6.7V28z M486.1,22.8v-6.5h9.1v-4.8h-9.1V5.7h10.8l-0.1-5.3h-16.4V28h16.9l0.1-5.2L486.1,22.8L486.1,22.8z    M398.9,22.6h-10.1V0.5H383V28h15.8L398.9,22.6z M298,16.6h8.5V28h5.8V0.5h-5.8v10.7H298V0.5h-5.8V28h5.8V16.6z M258.3,22.8H247   v-6.5h9.1v-4.8H247V5.7h10.8l-0.1-5.3h-16.4V28h16.9L258.3,22.8z M367.7,14.2c0-7.3-1.2-8.8-5-8.8c-3.7,0-5,1.6-5,8.8   c0,7.3,1.3,8.9,5,8.9C366.5,23.1,367.7,21.5,367.7,14.2z M362.7,28.4c-7.7,0-11-4.1-11-14.2c0-10.2,3.2-14.2,11-14.2   c7.8,0,11,4,11,14.2C373.8,24.6,370.5,28.4,362.7,28.4z M464.1,28h5.9V0.5H467h-2.9V28z M277.4,28.4c2.2,0,4.5-0.5,6.2-1.4   l-0.6-4.9c-1.4,0.6-2.9,1-4.7,1c-4.5,0-6.1-2-6.1-9.2c0-6.7,1.5-8.7,6-8.7c1.8,0,3.5,0.4,4.8,0.8l0.6-5.1c-1.4-0.6-3.8-1.1-5.8-1.1   c-8,0-11.6,4.6-11.6,14C266.2,24,269.8,28.4,277.4,28.4z M420.9,14.2c0-7.3-1.2-8.8-5-8.8c-3.7,0-5,1.6-5,8.8c0,7.3,1.3,8.9,5,8.9   C419.7,23.1,420.9,21.5,420.9,14.2z M427,14.2c0,10.4-3.2,14.2-11,14.2c-7.7,0-11-4.1-11-14.2c0-10.2,3.2-14.2,11-14.2   S427,4.1,427,14.2z M449.1,22.8c-0.8,0.2-1.7,0.3-2.6,0.3c-4.2,0-5.7-1.8-5.7-8.9c0-7,1.5-8.9,6.4-8.9c2.1,0,4.3,0.4,6,1.1l0.6-5.1   C452,0.5,449.3,0,446.9,0c-8.5,0-12.1,4.4-12.1,14.3c0,9.6,3.3,14.2,11.9,14.2c2.8,0,5.8-0.6,7.6-1.5V13.1h-5.2V22.8z"/>
</g>
<g id="Bildmarke_A1">
	<g>
		<polygon class="st0" points="15.7,150 0,102.9 0.7,102.4 52.9,111.1 52.5,111.5   "/>
		<polygon class="st1" points="36.4,26.8 186.2,92.8 168.9,130.8 0,102.9   "/>
		<polygon class="st2" points="0,102.9 147.3,12.6 168.9,130.8   "/>
		<polygon class="st3" points="0,102.9 87.5,49.3 159.8,81.1 168.9,130.8   "/>
		<polygon class="st4" points="0,102.9 147.3,12.6 52.5,111.5   "/>
		<polygon class="st5" points="0,102.9 87.5,49.3 104.9,56.9 52.5,111.5   "/>
	</g>
</g>
</svg>