<svg xmlns="http://www.w3.org/2000/svg" viewBox="0 0 850.39 566.93" style="enable-background:new 0 0 850.39 566.93" xml:space="preserve"><switch><g><path style="fill:#fff" d="M2.83 2.83h844.72v561.26H2.83z"/><path d="M0 0v566.93h850.39V0H0zm5.67 5.67h561.26V277.8H5.67V5.67zm839.05 555.59H5.67v-277.8h839.06v277.8zm0-283.46H572.6V5.67h272.13V277.8z"/><path d="M485.55 96.01v62.43c0 .81-.54 1.08-.95.27l-35.63-63.24c-.41-.67-1.22-1.08-2.03-1.08H431.7c-.95 0-1.62.67-1.62 1.62v91.16c0 .94.67 1.62 1.62 1.62h13.23c.95 0 1.62-.68 1.62-1.62v-62.3c0-.81.54-1.08.95-.27l35.63 63.11c.41.68 1.22 1.08 2.03 1.08h15.25c.95 0 1.62-.68 1.62-1.62V96.01c0-.95-.67-1.62-1.62-1.62h-13.23c-.96 0-1.63.68-1.63 1.62m-95.36 92.78h13.36c.94 0 1.62-.68 1.62-1.62V96.01c0-.95-.67-1.62-1.62-1.62h-13.36c-.94 0-1.62.67-1.62 1.62v91.16c0 .94.68 1.62 1.62 1.62m-53.28-16.45V96.01c0-.95-.67-1.62-1.62-1.62h-13.36c-.94 0-1.62.67-1.62 1.62v91.16c0 .94.67 1.62 1.62 1.62h46.02c.95 0 1.62-.68 1.62-1.62v-12.41c0-.94-.67-1.62-1.62-1.62h-30.23c-.54 0-.81-.4-.81-.8m-87.3-62.3h12.28c10.93 0 19.7 5.8 19.7 17.8s-8.77 17.8-19.84 17.8H249.6c-.54 0-.81-.4-.81-.81v-33.98c.02-.54.29-.81.82-.81m31.32 78.75h17c1.35 0 1.75-.95.95-2.02l-20.25-27.37c-.27-.4-.27-.94.27-1.21 12.01-4.85 19.98-15.51 19.98-30.34 0-21.04-15.93-33.44-36.17-33.44h-28.88c-.95 0-1.62.67-1.62 1.62v91.16c0 .94.67 1.62 1.62 1.62h13.36c.94 0 1.62-.68 1.62-1.62v-25.08c0-.54.4-.81.81-.81h10.26c.41 0 .81.27 1.08.54l18.09 25.89c.39.65 1.07 1.06 1.88 1.06m-73.26-80.37V96.01c0-.95-.67-1.62-1.62-1.62h-49.13c-.95 0-1.62.67-1.62 1.62v91.16c0 .94.67 1.62 1.62 1.62h49.13c.95 0 1.62-.68 1.62-1.62v-12.41c0-.94-.67-1.62-1.62-1.62h-33.47c-.54 0-.81-.4-.81-.81v-22.66c0-.54.41-.81.81-.81h33.47c.95 0 1.62-.67 1.62-1.62v-12.27c0-.95-.67-1.62-1.62-1.62h-33.47c-.54 0-.81-.27-.81-.81v-21.71c0-.54.41-.81.81-.81h33.47c.94.02 1.62-.66 1.62-1.6m-105.22 64.72H88.14c-.54 0-.81-.4-.81-.81v-22.66c0-.54.27-.81.81-.81h14.31c8.77 0 13.63 4.99 13.63 12.14 0 7.29-4.86 12.14-13.63 12.14m-1.35-63.1c8.5 0 13.22 4.59 13.22 11.6s-4.72 11.73-13.22 11.73H88.14c-.54 0-.81-.27-.81-.81v-21.71c0-.54.27-.81.81-.81h12.96zm19.7 29.66c6.75-4.31 10.8-11.06 10.8-19.82 0-14.43-9.99-25.49-28.34-25.49H72.48c-.94 0-1.62.67-1.62 1.62v91.16c0 .94.67 1.62 1.62 1.62h31.99c18.89 0 28.88-11.46 28.88-26.56 0-9.84-4.72-17.26-12.55-21.44-.54-.41-.54-.82 0-1.09" style="fill:#e40422"/><path d="M750.31 222.16s-4.96-32.87-7.3-46.72c.66-.14 1.02-.22 1.02-.22 2.17-.38 2.99-2.86 2.02-4.53-5.61-9.66-7.61-21.69-7.61-33.64 0-7.37 1.23-14.45 3.51-21.05.13-.38.27-.75.41-1.13.08-.23.24-.74.28-.82 1.51-3.29 4.24-10.43 5.04-18.43.65-6.47-.17-11.87-1.3-16.93-.54-2.45-1.92-6.48-2.8-8.35-.15-.27-.3-.54-.45-.8 2.02-2.03 2.42-5.28.86-7.98-1.83-3.16-5.59-4.41-8.4-2.79-.3.17-.99.66-1.3.88-.51-.38-.81-.56-.81-.56-.02-.01-.79-.52-1.47-.88 0 0-.26-.13-.26-.14-2.88-1.28-6.01-1.96-9.37-1.96-1.64 0-3.24.17-4.8.49-3.35.7-6.44 2.11-9.1 4.08-1.39.44-2.88.55-2.88.55l-3.8.18c-1.79.08-3.83-.01-3.83-.01-.89 0-1.62.73-1.62 1.62 0 .08.59 5.31.59 5.32.14 1.31.69 2.54 1.79 3.25l.13.09c.35.23.53.42.6.62.42 1.14 1.27 2.27 1.84 2.62.26.16.67.08.74-.21.72-2.85 2.42.23 5.66-1.53.83-.45 1.28 1.57.93 2.45l-.3.76a5.132 5.132 0 0 1-4.02 3.18c-1.43.21-2.26.35-2.24.55.17 1.61-.02 3 1.62 3.97.48.26.72.32.72.32 2.51.66 9.83 3.47.52 14.46 0 0-.88.99-1.57 1.97-.2.28-.37.58-.51.89l-.19.4-28-10.48c-.84-.33-1.93-1.25-2.45-1.99l-2.76-4.74c-1.71-2.37-3.21-3.27-6.18-3.51-2.15-.18-3.9-.01-3.9-.01-.83.04-1.31.24-1.49.72-.19.53-.21 1.85.61 3.51l2.4 4.41c.21.31 3.24 7.09 3.24 7.09.3.84.82 1.57 1.5 2.14.06.05 28.74 21.72 28.74 21.72l-30.29 15.11c-.87.47-1.9.58-2.85.29-1.11-.34-2.7-.82-2.71-.82-4.96-2.21-8.69-.67-10.87 1.16l-.86.81c-.83.82-.52 1.94.42 2.4 0 0 4.78 2.81 5.83 3.53l7.44 4.41c1.15.67 2.52.89 3.83.62l29.41-5.93c.71 11.26 3.55 20.62 3.55 20.62-5.3 5.1-12.61 14.83-15.01 28.19-1.43 7.94-.96 15.13 1.2 23.59-4.11.23-8.07.83-11.36 3.12-3.13 2.18-3.77 6.06-3.79 8l22.96.05 1.94-.01c2.42-.03 3.04-2.43 3.04-2.43.24-.73.31-1.68.42-2.38.73-4.59 1.31-9.37 5.4-17.61 3.3-6.66 9.14-12.65 9.15-12.65.01.02 9.66 14.31 25.98 24.11-3.13.2-7.17 1.23-9.57 2.56-3.8 2.11-4.85 6.45-4.76 8.47h23.79c1.64 0 3-1.06 3.49-2.5.05-.15.09-.3.12-.46.02-.11.04-.23.05-.34.02-.24.02-.49-.01-.74z"/><g><path d="M70.28 363.64c-.1-.3 0-.5.3-.65l2.55-1.05c.3-.15.55 0 .65.3 1.05 3.6 4 5.7 7.8 5.7 4.9 0 7.4-2.8 7.4-6.45 0-3.9-2.6-6.1-6.45-6.85l-2.55-.5c-5.2-1-8.65-4.3-8.65-9.6s4.3-9.7 10.5-9.7c5.05 0 8.85 2.8 10.5 7.2.1.3 0 .5-.3.65l-2.6 1.1c-.3.15-.55 0-.65-.3-1.2-3.1-3.85-5.05-6.95-5.05-4.2 0-6.6 2.6-6.6 6.05 0 3.1 1.8 5.25 5.55 5.95l2.55.5c5 1 9.55 4.1 9.55 10.3 0 5.8-4.3 10.3-11.35 10.3-5.25 0-9.55-2.95-11.25-7.9zM97.58 359.09c0-7.35 4.9-12.1 11.3-12.1s11.2 4.85 11.2 11.55c0 .35 0 .75-.05 1.15-.05.25-.2.4-.5.4h-17.65c-.35 0-.55.15-.45.65.55 4.35 3.5 7.2 7.95 7.2 2.75 0 4.95-1.25 6.55-2.9.35-.35.6-.45.85-.2l1.65 1.8c.2.2.2.45 0 .65-2.35 2.45-5.5 3.95-9.05 3.95-6.9 0-11.8-4.8-11.8-12.15zm18.6-2.5c-.65-3.75-3.45-6.3-7.3-6.3-3.8 0-6.75 2.65-7.35 6.35-.1.4 0 .55.45.55h13.75c.4 0 .55-.15.45-.6zM128.98 370.69h-2.65c-.3 0-.5-.2-.5-.5v-22.2c0-.3.2-.5.5-.5h2.4c.3 0 .5.2.5.5v1.65c0 .25.2.35.4.1 1.5-1.7 3.35-2.75 6.05-2.75 5.15 0 7.8 3.4 7.8 7.65v15.55c0 .3-.2.5-.5.5h-2.65c-.3 0-.5-.2-.5-.5v-14.95c0-3.25-1.75-5-4.85-5-2.2 0-4.05 1.2-5.25 3.3-.2.4-.25.65-.25 1.05v15.6c0 .3-.2.5-.5.5zM149.18 359.09c0-7.25 4.95-12.1 11.4-12.1 3.3 0 5.85 1.1 7.55 3.1.15.15.3.05.3-.15v-1.95c0-.3.2-.5.5-.5h2.45c.3 0 .5.2.5.5v22.2c0 .3-.2.5-.5.5h-2.45c-.3 0-.5-.2-.5-.5v-1.95c0-.2-.15-.3-.3-.15-1.85 1.85-4.25 3.1-7.55 3.1-6.45 0-11.4-4.85-11.4-12.1zm18.85 5.1c.15-.3.2-.5.2-.9v-8.4c0-.4-.05-.6-.2-.9-1.25-2.2-3.75-3.7-6.9-3.7-4.95 0-8.25 3.55-8.25 8.8 0 5.25 3.3 8.8 8.25 8.8 3.15 0 5.75-1.45 6.9-3.7zM181.03 338.44l2.7-1.45c.35-.15.6 0 .6.35v9.9c0 .15.1.25.25.25h2.75c.3 0 .5.2.5.5v2.15c0 .3-.2.5-.5.5h-2.75c-.15 0-.25.1-.25.25v19.3c0 .3-.2.5-.5.5h-2.65c-.3 0-.5-.2-.5-.5v-19.3c0-.15-.1-.25-.25-.25h-2.75c-.3 0-.5-.2-.5-.5v-2.15c0-.3.2-.5.5-.5h2.75c.15 0 .25-.1.25-.25v-8.2c0-.25.1-.5.35-.6zM191.28 365.74c-.1-.3 0-.5.3-.6l2.4-.85c.3-.1.55.05.65.35.65 2.25 2.6 3.4 4.45 3.4 2.9 0 4.3-1.6 4.3-3.65 0-2.3-1.7-3.3-4.05-3.75l-2-.4c-3.4-.65-5.55-3.25-5.55-6.55 0-3.75 3.1-6.7 7.5-6.7 3.6 0 6.35 1.95 7.35 5.5.1.35-.05.55-.35.65l-2.35.6c-.3.1-.55-.05-.6-.35-.5-1.95-1.9-3.2-4.05-3.2-2.35 0-3.9 1.4-3.9 3.35 0 2.05 1.2 3 3.4 3.45l1.95.4c3.55.7 6.25 2.95 6.25 7 0 3.9-2.95 6.85-7.9 6.85-4.1 0-6.75-2.3-7.8-5.5zM226.83 347.49h2.8c.35 0 .5.2.4.55l-7.35 22.25c-.1.25-.35.4-.65.4h-3.85c-.3 0-.55-.15-.65-.4l-7.35-22.25c-.1-.35.05-.55.4-.55h2.8c.25 0 .5.15.6.4l5.95 18.45c.05.2.3.2.35 0l5.95-18.45c.1-.25.35-.4.6-.4zM233.23 359.09c0-7.35 4.9-12.1 11.3-12.1s11.2 4.85 11.2 11.55c0 .35 0 .75-.05 1.15-.05.25-.2.4-.5.4h-17.65c-.35 0-.55.15-.45.65.55 4.35 3.5 7.2 7.95 7.2 2.75 0 4.95-1.25 6.55-2.9.35-.35.6-.45.85-.2l1.65 1.8c.2.2.2.45 0 .65-2.35 2.45-5.5 3.95-9.05 3.95-6.9 0-11.8-4.8-11.8-12.15zm18.6-2.5c-.65-3.75-3.45-6.3-7.3-6.3-3.8 0-6.75 2.65-7.35 6.35-.1.4 0 .55.45.55h13.75c.4 0 .55-.15.45-.6zM272.28 347.04c.3 0 .45.2.45.5v2.65c0 .35-.2.5-.55.4-.4-.05-.85-.1-1.2-.1-2.6 0-4.35 1.25-5.5 2.95-.3.45-.35.8-.35 1.25v15.5c0 .3-.2.5-.5.5h-2.65c-.3 0-.5-.2-.5-.5v-22.2c0-.3.2-.5.5-.5h2.4c.3 0 .5.2.5.5v1.8c0 .25.15.35.35.15 1.3-1.55 3.35-2.95 6.3-2.95.25 0 .5 0 .75.05zM301.13 347.49h2.7c.35 0 .55.2.45.55l-5.6 22.2c-.05.3-.25.45-.55.45h-3.5c-.35 0-.55-.2-.65-.55l-4.1-15.95c-.05-.2-.3-.2-.35 0l-4.1 15.95c-.1.35-.3.55-.65.55h-3.5c-.3 0-.5-.15-.55-.45l-5.6-22.2c-.1-.35.1-.55.45-.55h2.7c.35 0 .55.15.6.45l4.15 17.55c.05.25.25.25.3 0l4.5-17.55c.1-.3.25-.45.55-.45h2.65c.3 0 .45.15.55.45l4.5 17.55c.05.25.25.25.3 0l4.15-17.55c.05-.3.25-.45.6-.45zM308.03 359.09c0-7.25 4.95-12.1 11.4-12.1 3.3 0 5.85 1.1 7.55 3.1.15.15.3.05.3-.15v-1.95c0-.3.2-.5.5-.5h2.45c.3 0 .5.2.5.5v22.2c0 .3-.2.5-.5.5h-2.45c-.3 0-.5-.2-.5-.5v-1.95c0-.2-.15-.3-.3-.15-1.85 1.85-4.25 3.1-7.55 3.1-6.45 0-11.4-4.85-11.4-12.1zm18.85 5.1c.15-.3.2-.5.2-.9v-8.4c0-.4-.05-.6-.2-.9-1.25-2.2-3.75-3.7-6.9-3.7-4.95 0-8.25 3.55-8.25 8.8 0 5.25 3.3 8.8 8.25 8.8 3.15 0 5.75-1.45 6.9-3.7zM344.58 368.14v2.25c0 .3-.2.5-.5.5h-.9c-3.05 0-4.95-1.4-4.95-4.6v-31.3c0-.3.2-.5.5-.5h2.65c.3 0 .5.2.5.5v30.85c0 1.1.4 1.8 1.5 1.8h.7c.3 0 .5.2.5.5zM351.68 338.44l2.7-1.45c.35-.15.6 0 .6.35v9.9c0 .15.1.25.25.25h2.75c.3 0 .5.2.5.5v2.15c0 .3-.2.5-.5.5h-2.75c-.15 0-.25.1-.25.25v19.3c0 .3-.2.5-.5.5h-2.65c-.3 0-.5-.2-.5-.5v-19.3c0-.15-.1-.25-.25-.25h-2.75c-.3 0-.5-.2-.5-.5v-2.15c0-.3.2-.5.5-.5h2.75c.15 0 .25-.1.25-.25v-8.2c0-.25.1-.5.35-.6zM377.98 347.49h2.65c.3 0 .5.2.5.5v22.2c0 .3-.2.5-.5.5h-2.4c-.3 0-.5-.2-.5-.5v-1.65c0-.25-.2-.35-.45-.1-1.45 1.7-3.3 2.75-6.05 2.75-5.1 0-7.75-3.4-7.75-7.65v-15.55c0-.3.2-.5.5-.5h2.65c.3 0 .5.2.5.5v14.95c0 3.25 1.75 5 4.85 5 2.2 0 4.05-1.2 5.25-3.3.2-.4.25-.65.25-1.05v-15.6c0-.3.2-.5.5-.5zM391.88 370.69h-2.65c-.3 0-.5-.2-.5-.5v-22.2c0-.3.2-.5.5-.5h2.4c.3 0 .5.2.5.5v1.65c0 .25.2.35.4.1 1.5-1.7 3.35-2.75 6.05-2.75 5.15 0 7.8 3.4 7.8 7.65v15.55c0 .3-.2.5-.5.5h-2.65c-.3 0-.5-.2-.5-.5v-14.95c0-3.25-1.75-5-4.85-5-2.2 0-4.05 1.2-5.25 3.3-.2.4-.25.65-.25 1.05v15.6c0 .3-.2.5-.5.5zM414.33 377.2c-.2-.25-.2-.5 0-.7l1.7-1.85c.2-.25.45-.25.7 0 1.45 1.75 3.65 3 6.75 3 4.6 0 7.45-2.05 7.45-6.55v-3.45c0-.25-.25-.35-.5-.1-1.7 1.65-4.1 2.65-7.2 2.65-6.25 0-11.1-4.65-11.1-11.65 0-6.9 4.95-11.55 11.3-11.55 3.1 0 5.55 1 7.25 2.8.25.25.45.15.45-.15V348c0-.3.25-.5.5-.5h2.45c.3 0 .5.2.5.5v23.4c0 6.2-4.65 9.6-11.1 9.6-4.1 0-7.15-1.55-9.15-3.8zm16.4-13.86c.2-.3.25-.55.25-.9v-7.75c0-.35-.05-.6-.25-.9-1.3-2.05-3.65-3.5-6.8-3.5-4.8 0-8.05 3.4-8.05 8.25 0 4.95 3.25 8.3 8.05 8.3 3.15 0 5.5-1.45 6.8-3.5zM72.68 434.89v-19.3c0-.15-.1-.25-.25-.25h-2c-.3 0-.5-.2-.5-.45v-2.2c0-.3.2-.5.5-.5h2c.15 0 .25-.1.25-.25v-7.4c0-3.6 1.85-5.9 5.4-5.9 1 0 1.95.3 2.75.65.3.15.45.3.35.6l-.7 2.35c-.1.35-.35.35-.65.2-.5-.25-1-.4-1.45-.4-1.25 0-2.05.9-2.05 2.7v7.2c0 .15.1.25.25.25h3.1c.3 0 .5.2.5.5v2.2c0 .25-.2.45-.5.45h-3.1c-.15 0-.25.1-.25.25v19.3c0 .3-.2.5-.45.5h-2.7c-.3 0-.5-.2-.5-.5zM99.43 412.19h2.65c.3 0 .5.2.5.5v22.2c0 .3-.2.5-.5.5h-2.4c-.3 0-.5-.2-.5-.5v-1.65c0-.25-.2-.35-.45-.1-1.45 1.7-3.3 2.75-6.05 2.75-5.1 0-7.75-3.4-7.75-7.65v-15.55c0-.3.2-.5.5-.5h2.65c.3 0 .5.2.5.5v14.95c0 3.25 1.75 5 4.85 5 2.2 0 4.05-1.2 5.25-3.3.2-.4.25-.65.25-1.05v-15.6c0-.3.2-.5.5-.5zm-13.25-8.15c0-1.45 1.2-2.7 2.7-2.7 1.45 0 2.7 1.25 2.7 2.7 0 1.45-1.25 2.75-2.7 2.75-1.5 0-2.7-1.3-2.7-2.75zm9.85 0c0-1.45 1.2-2.7 2.7-2.7 1.45 0 2.7 1.25 2.7 2.7 0 1.45-1.25 2.75-2.7 2.75-1.5 0-2.7-1.3-2.7-2.75zM120.98 411.74c.3 0 .45.2.45.5v2.65c0 .35-.2.5-.55.4-.4-.05-.85-.1-1.2-.1-2.6 0-4.35 1.25-5.5 2.95-.3.45-.35.8-.35 1.25v15.5c0 .3-.2.5-.5.5h-2.65c-.3 0-.5-.2-.5-.5v-22.2c0-.3.2-.5.5-.5h2.4c.3 0 .5.2.5.5v1.8c0 .25.15.35.35.15 1.3-1.55 3.35-2.95 6.3-2.95.25 0 .5 0 .75.05zM142.43 400.89v34c0 .3-.2.5-.5.5h-2.7c-.3 0-.5-.2-.5-.5v-34c0-.3.2-.5.5-.5h2.7c.3 0 .5.2.5.5zM153.83 435.39h-2.65c-.3 0-.5-.2-.5-.5v-22.2c0-.3.2-.5.5-.5h2.4c.3 0 .5.2.5.5v1.65c0 .25.2.35.4.1 1.5-1.7 3.35-2.75 6.05-2.75 5.15 0 7.8 3.4 7.8 7.65v15.55c0 .3-.2.5-.5.5h-2.65c-.3 0-.5-.2-.5-.5v-14.95c0-3.25-1.75-5-4.85-5-2.2 0-4.05 1.2-5.25 3.3-.2.4-.25.65-.25 1.05v15.6c0 .3-.2.5-.5.5zM178.83 435.39h-2.65c-.3 0-.5-.2-.5-.5v-22.2c0-.3.2-.5.5-.5h2.4c.3 0 .5.2.5.5v1.65c0 .25.2.35.4.1 1.5-1.7 3.35-2.75 6.05-2.75 5.15 0 7.8 3.4 7.8 7.65v15.55c0 .3-.2.5-.5.5h-2.65c-.3 0-.5-.2-.5-.5v-14.95c0-3.25-1.75-5-4.85-5-2.2 0-4.05 1.2-5.25 3.3-.2.4-.25.65-.25 1.05v15.6c0 .3-.2.5-.5.5zM199.03 423.79c0-7.35 4.9-12.1 11.3-12.1s11.2 4.85 11.2 11.55c0 .35 0 .75-.05 1.15-.05.25-.2.4-.5.4h-17.65c-.35 0-.55.15-.45.65.55 4.35 3.5 7.2 7.95 7.2 2.75 0 4.95-1.25 6.55-2.9.35-.35.6-.45.85-.2l1.65 1.8c.2.2.2.45 0 .65-2.35 2.45-5.5 3.95-9.05 3.95-6.9 0-11.8-4.8-11.8-12.15zm18.6-2.5c-.65-3.75-3.45-6.3-7.3-6.3-3.8 0-6.75 2.65-7.35 6.35-.1.4 0 .55.45.55h13.75c.4 0 .55-.15.45-.6zM238.08 411.74c.3 0 .45.2.45.5v2.65c0 .35-.2.5-.55.4-.4-.05-.85-.1-1.2-.1-2.6 0-4.35 1.25-5.5 2.95-.3.45-.35.8-.35 1.25v15.5c0 .3-.2.5-.5.5h-2.65c-.3 0-.5-.2-.5-.5v-22.2c0-.3.2-.5.5-.5h2.4c.3 0 .5.2.5.5v1.8c0 .25.15.35.35.15 1.3-1.55 3.35-2.95 6.3-2.95.25 0 .5 0 .75.05zM240.68 423.79c0-7.35 4.9-12.1 11.3-12.1s11.2 4.85 11.2 11.55c0 .35 0 .75-.05 1.15-.05.25-.2.4-.5.4h-17.65c-.35 0-.55.15-.45.65.55 4.35 3.5 7.2 7.95 7.2 2.75 0 4.95-1.25 6.55-2.9.35-.35.6-.45.85-.2l1.65 1.8c.2.2.2.45 0 .65-2.35 2.45-5.5 3.95-9.05 3.95-6.9 0-11.8-4.8-11.8-12.15zm18.6-2.5c-.65-3.75-3.45-6.3-7.3-6.3-3.8 0-6.75 2.65-7.35 6.35-.1.4 0 .55.45.55h13.75c.4 0 .55-.15.45-.6zM267.33 430.44c-.1-.3 0-.5.3-.6l2.4-.85c.3-.1.55.05.65.35.65 2.25 2.6 3.4 4.45 3.4 2.9 0 4.3-1.6 4.3-3.65 0-2.3-1.7-3.3-4.05-3.75l-2-.4c-3.4-.65-5.55-3.25-5.55-6.55 0-3.75 3.1-6.7 7.5-6.7 3.6 0 6.35 1.95 7.35 5.5.1.35-.05.55-.35.65l-2.35.6c-.3.1-.55-.05-.6-.35-.5-1.95-1.9-3.2-4.05-3.2-2.35 0-3.9 1.4-3.9 3.35 0 2.05 1.2 3 3.4 3.45l1.95.4c3.55.7 6.25 2.95 6.25 7 0 3.9-2.95 6.85-7.9 6.85-4.1 0-6.75-2.3-7.8-5.5zM294.88 433.04c0 2.05-.85 3.55-1.75 5.1l-3.75 6.45c-.15.3-.4.4-.7.2l-1.7-1.1c-.3-.2-.3-.4-.15-.65l3.85-6.6c.2-.35.15-.5-.2-.65-1.25-.4-2.1-1.6-2.1-3.05 0-1.75 1.45-3.2 3.25-3.2s3.25 1.3 3.25 3.5zM341.98 417.89c0 10.7-7.05 17.5-16.95 17.5h-10.45c-.3 0-.5-.2-.5-.5v-34c0-.3.2-.5.5-.5h10.45c9.9 0 16.95 6.8 16.95 17.5zm-23.95 13.95h6.85c7.65 0 13.2-4.85 13.2-13.95s-5.55-13.95-13.2-13.95h-6.85c-.15 0-.25.1-.25.25v27.4c0 .15.1.25.25.25zM347.23 404.04c0-1.45 1.25-2.7 2.75-2.7 1.4 0 2.65 1.25 2.65 2.7 0 1.45-1.25 2.75-2.65 2.75-1.5 0-2.75-1.3-2.75-2.75zm.85 30.85v-22.2c0-.3.2-.5.5-.5h2.65c.3 0 .5.2.5.5v22.2c0 .3-.2.5-.5.5h-2.65c-.3 0-.5-.2-.5-.5zM359.93 441.89c-.2-.25-.2-.5 0-.7l1.7-1.85c.2-.25.45-.25.7 0 1.45 1.75 3.65 3 6.75 3 4.6 0 7.45-2.05 7.45-6.55v-3.45c0-.25-.25-.35-.5-.1-1.7 1.65-4.1 2.65-7.2 2.65-6.25 0-11.1-4.65-11.1-11.65 0-6.9 4.95-11.55 11.3-11.55 3.1 0 5.55 1 7.25 2.8.25.25.45.15.45-.15v-1.65c0-.3.25-.5.5-.5h2.45c.3 0 .5.2.5.5v23.4c0 6.2-4.65 9.6-11.1 9.6-4.1.01-7.15-1.54-9.15-3.8zm16.4-13.85c.2-.3.25-.55.25-.9v-7.75c0-.35-.05-.6-.25-.9-1.3-2.05-3.65-3.5-6.8-3.5-4.8 0-8.05 3.4-8.05 8.25 0 4.95 3.25 8.3 8.05 8.3 3.15 0 5.5-1.45 6.8-3.5zM386.88 404.04c0-1.45 1.25-2.7 2.75-2.7 1.4 0 2.65 1.25 2.65 2.7 0 1.45-1.25 2.75-2.65 2.75-1.5 0-2.75-1.3-2.75-2.75zm.85 30.85v-22.2c0-.3.2-.5.5-.5h2.65c.3 0 .5.2.5.5v22.2c0 .3-.2.5-.5.5h-2.65c-.3 0-.5-.2-.5-.5zM400.48 403.14l2.7-1.45c.35-.15.6 0 .6.35v9.9c0 .15.1.25.25.25h2.75c.3 0 .5.2.5.5v2.15c0 .3-.2.5-.5.5h-2.75c-.15 0-.25.1-.25.25v19.3c0 .3-.2.5-.5.5h-2.65c-.3 0-.5-.2-.5-.5v-19.3c0-.15-.1-.25-.25-.25h-2.75c-.3 0-.5-.2-.5-.5v-2.15c0-.3.2-.5.5-.5h2.75c.15 0 .25-.1.25-.25v-8.2c0-.25.1-.5.35-.6zM410.63 423.79c0-7.25 4.95-12.1 11.4-12.1 3.3 0 5.85 1.1 7.55 3.1.15.15.3.05.3-.15v-1.95c0-.3.2-.5.5-.5h2.45c.3 0 .5.2.5.5v22.2c0 .3-.2.5-.5.5h-2.45c-.3 0-.5-.2-.5-.5v-1.95c0-.2-.15-.3-.3-.15-1.85 1.85-4.25 3.1-7.55 3.1-6.45 0-11.4-4.85-11.4-12.1zm18.85 5.1c.15-.3.2-.5.2-.9v-8.4c0-.4-.05-.6-.2-.9-1.25-2.2-3.75-3.7-6.9-3.7-4.95 0-8.25 3.55-8.25 8.8 0 5.25 3.3 8.8 8.25 8.8 3.15 0 5.75-1.45 6.9-3.7zM447.18 432.84v2.25c0 .3-.2.5-.5.5h-.9c-3.05 0-4.95-1.4-4.95-4.6v-31.3c0-.3.2-.5.5-.5h2.65c.3 0 .5.2.5.5v30.85c0 1.1.4 1.8 1.5 1.8h.7c.3 0 .5.2.5.5zM452.03 404.04c0-1.45 1.25-2.7 2.75-2.7 1.4 0 2.65 1.25 2.65 2.7 0 1.45-1.25 2.75-2.65 2.75-1.5 0-2.75-1.3-2.75-2.75zm.85 30.85v-22.2c0-.3.2-.5.5-.5h2.65c.3 0 .5.2.5.5v22.2c0 .3-.2.5-.5.5h-2.65c-.3 0-.5-.2-.5-.5zM462.53 430.44c-.1-.3 0-.5.3-.6l2.4-.85c.3-.1.55.05.65.35.65 2.25 2.6 3.4 4.45 3.4 2.9 0 4.3-1.6 4.3-3.65 0-2.3-1.7-3.3-4.05-3.75l-2-.4c-3.4-.65-5.55-3.25-5.55-6.55 0-3.75 3.1-6.7 7.5-6.7 3.6 0 6.35 1.95 7.35 5.5.1.35-.05.55-.35.65l-2.35.6c-.3.1-.55-.05-.6-.35-.5-1.95-1.9-3.2-4.05-3.2-2.35 0-3.9 1.4-3.9 3.35 0 2.05 1.2 3 3.4 3.45l1.95.4c3.55.7 6.25 2.95 6.25 7 0 3.9-2.95 6.85-7.9 6.85-4.1 0-6.75-2.3-7.8-5.5zM483.43 404.04c0-1.45 1.25-2.7 2.75-2.7 1.4 0 2.65 1.25 2.65 2.7 0 1.45-1.25 2.75-2.65 2.75-1.5 0-2.75-1.3-2.75-2.75zm.85 30.85v-22.2c0-.3.2-.5.5-.5h2.65c.3 0 .5.2.5.5v22.2c0 .3-.2.5-.5.5h-2.65c-.3 0-.5-.2-.5-.5zM493.88 423.79c0-7.35 4.9-12.1 11.3-12.1s11.2 4.85 11.2 11.55c0 .35 0 .75-.05 1.15-.05.25-.2.4-.5.4h-17.65c-.35 0-.55.15-.45.65.55 4.35 3.5 7.2 7.95 7.2 2.75 0 4.95-1.25 6.55-2.9.35-.35.6-.45.85-.2l1.65 1.8c.2.2.2.45 0 .65-2.35 2.45-5.5 3.95-9.05 3.95-6.9 0-11.8-4.8-11.8-12.15zm18.6-2.5c-.65-3.75-3.45-6.3-7.3-6.3-3.8 0-6.75 2.65-7.35 6.35-.1.4 0 .55.45.55h13.75c.4 0 .55-.15.45-.6zM532.93 411.74c.3 0 .45.2.45.5v2.65c0 .35-.2.5-.55.4-.4-.05-.85-.1-1.2-.1-2.6 0-4.35 1.25-5.5 2.95-.3.45-.35.8-.35 1.25v15.5c0 .3-.2.5-.5.5h-2.65c-.3 0-.5-.2-.5-.5v-22.2c0-.3.2-.5.5-.5h2.4c.3 0 .5.2.5.5v1.8c0 .25.15.35.35.15 1.3-1.55 3.35-2.95 6.3-2.95.25 0 .5 0 .75.05zM552.23 412.19h2.65c.3 0 .5.2.5.5v22.2c0 .3-.2.5-.5.5h-2.4c-.3 0-.5-.2-.5-.5v-1.65c0-.25-.2-.35-.45-.1-1.45 1.7-3.3 2.75-6.05 2.75-5.1 0-7.75-3.4-7.75-7.65v-15.55c0-.3.2-.5.5-.5h2.65c.3 0 .5.2.5.5v14.95c0 3.25 1.75 5 4.85 5 2.2 0 4.05-1.2 5.25-3.3.2-.4.25-.65.25-1.05v-15.6c0-.3.2-.5.5-.5zM566.12 435.39h-2.65c-.3 0-.5-.2-.5-.5v-22.2c0-.3.2-.5.5-.5h2.4c.3 0 .5.2.5.5v1.65c0 .25.2.35.4.1 1.5-1.7 3.35-2.75 6.05-2.75 5.15 0 7.8 3.4 7.8 7.65v15.55c0 .3-.2.5-.5.5h-2.65c-.3 0-.5-.2-.5-.5v-14.95c0-3.25-1.75-5-4.85-5-2.2 0-4.05 1.2-5.25 3.3-.2.4-.25.65-.25 1.05v15.6c0 .3-.2.5-.5.5zM588.58 441.89c-.2-.25-.2-.5 0-.7l1.7-1.85c.2-.25.45-.25.7 0 1.45 1.75 3.65 3 6.75 3 4.6 0 7.45-2.05 7.45-6.55v-3.45c0-.25-.25-.35-.5-.1-1.7 1.65-4.1 2.65-7.2 2.65-6.25 0-11.1-4.65-11.1-11.65 0-6.9 4.95-11.55 11.3-11.55 3.1 0 5.55 1 7.25 2.8.25.25.45.15.45-.15v-1.65c0-.3.25-.5.5-.5h2.45c.3 0 .5.2.5.5v23.4c0 6.2-4.65 9.6-11.1 9.6-4.11.01-7.15-1.54-9.15-3.8zm16.4-13.85c.2-.3.25-.55.25-.9v-7.75c0-.35-.05-.6-.25-.9-1.3-2.05-3.65-3.5-6.8-3.5-4.8 0-8.05 3.4-8.05 8.25 0 4.95 3.25 8.3 8.05 8.3 3.15 0 5.5-1.45 6.8-3.5zM86.03 476.89h2.65c.3 0 .5.2.5.5v22.2c0 .3-.2.5-.5.5h-2.4c-.3 0-.5-.2-.5-.5v-1.65c0-.25-.2-.35-.45-.1-1.45 1.7-3.3 2.75-6.05 2.75-5.1 0-7.75-3.4-7.75-7.65v-15.55c0-.3.2-.5.5-.5h2.65c.3 0 .5.2.5.5v14.95c0 3.25 1.75 5 4.85 5 2.2 0 4.05-1.2 5.25-3.3.2-.4.25-.65.25-1.05v-15.6c0-.3.2-.5.5-.5zM99.93 500.09h-2.65c-.3 0-.5-.2-.5-.5v-22.2c0-.3.2-.5.5-.5h2.4c.3 0 .5.2.5.5v1.65c0 .25.2.35.4.1 1.5-1.7 3.35-2.75 6.05-2.75 5.15 0 7.8 3.4 7.8 7.65v15.55c0 .3-.2.5-.5.5h-2.65c-.3 0-.5-.2-.5-.5v-14.95c0-3.25-1.75-5-4.85-5-2.2 0-4.05 1.2-5.25 3.3-.2.4-.25.65-.25 1.05v15.6c0 .3-.2.5-.5.5zM139.68 463.89h2.65c.3 0 .5.2.5.5v35.2c0 .3-.2.5-.5.5h-2.45c-.3 0-.5-.2-.5-.5v-1.75c0-.35-.2-.4-.45-.1-1.65 1.85-4.15 2.85-7.4 2.85-6.45 0-11.4-4.85-11.4-12.1s4.95-12.1 11.4-12.1c3.1 0 5.5 1 7.2 2.65.3.3.45.15.45-.15v-14.5c0-.3.2-.5.5-.5zm-.7 29.7c.15-.3.2-.5.2-.8v-8.6c0-.3-.05-.5-.2-.8-1.3-2.2-3.75-3.7-6.9-3.7-4.95 0-8.25 3.55-8.25 8.8s3.3 8.8 8.25 8.8c3.15 0 5.6-1.5 6.9-3.7zM161.68 493.04c-.1-.3 0-.5.3-.65l2.55-1.05c.3-.15.55 0 .65.3 1.05 3.6 4 5.7 7.8 5.7 4.9 0 7.4-2.8 7.4-6.45 0-3.9-2.6-6.1-6.45-6.85l-2.55-.5c-5.2-1-8.65-4.3-8.65-9.6s4.3-9.7 10.5-9.7c5.05 0 8.85 2.8 10.5 7.2.1.3 0 .5-.3.65l-2.6 1.1c-.3.15-.55 0-.65-.3-1.2-3.1-3.85-5.05-6.95-5.05-4.2 0-6.6 2.6-6.6 6.05 0 3.1 1.8 5.25 5.55 5.95l2.55.5c5 1 9.55 4.1 9.55 10.3 0 5.8-4.3 10.3-11.35 10.3-5.25 0-9.55-2.95-11.25-7.9zM193.43 509.95h-2.65c-.3 0-.5-.2-.5-.5V477.4c0-.3.2-.5.5-.5h2.4c.3 0 .5.2.5.5v1.75c0 .35.2.4.45.1 1.65-1.9 4.15-2.85 7.4-2.85 6.5 0 11.45 4.85 11.45 12.1s-4.95 12.1-11.45 12.1c-3.1 0-5.5-1-7.15-2.65-.3-.3-.45-.15-.45.15v11.35c0 .3-.2.5-.5.5zm15.85-21.46c0-5.25-3.3-8.8-8.25-8.8-3.15 0-5.75 1.4-6.9 3.7-.15.3-.2.5-.2.8v8.6c0 .3.05.5.2.8 1.15 2.3 3.75 3.7 6.9 3.7 4.95 0 8.25-3.55 8.25-8.8zM217.23 488.49c0-6.65 4.95-12.1 11.7-12.1s11.7 5.45 11.7 12.1-4.95 12.1-11.7 12.1-11.7-5.45-11.7-12.1zm19.7 0c0-4.8-3.25-8.75-8-8.75s-8 3.95-8 8.75 3.25 8.75 8 8.75 8-3.95 8-8.75zM257.38 476.44c.3 0 .45.2.45.5v2.65c0 .35-.2.5-.55.4-.4-.05-.85-.1-1.2-.1-2.6 0-4.35 1.25-5.5 2.95-.3.45-.35.8-.35 1.25v15.5c0 .3-.2.5-.5.5h-2.65c-.3 0-.5-.2-.5-.5v-22.2c0-.3.2-.5.5-.5h2.4c.3 0 .5.2.5.5v1.8c0 .25.15.35.35.15 1.3-1.55 3.35-2.95 6.3-2.95.25 0 .5 0 .75.05zM263.98 467.84l2.7-1.45c.35-.15.6 0 .6.35v9.9c0 .15.1.25.25.25h2.75c.3 0 .5.2.5.5v2.15c0 .3-.2.5-.5.5h-2.75c-.15 0-.25.1-.25.25v19.3c0 .3-.2.5-.5.5h-2.65c-.3 0-.5-.2-.5-.5v-19.3c0-.15-.1-.25-.25-.25h-2.75c-.3 0-.5-.2-.5-.5v-2.15c0-.3.2-.5.5-.5h2.75c.15 0 .25-.1.25-.25v-8.2c0-.25.1-.5.35-.6z"/></g></g></switch></svg>