<?xml version="1.0" encoding="utf-8"?>
<!-- Generator: Adobe Illustrator 27.1.0, SVG Export Plug-In . SVG Version: 6.00 Build 0)  -->
<svg version="1.1" id="Ebene_1" xmlns="http://www.w3.org/2000/svg" xmlns:xlink="http://www.w3.org/1999/xlink" x="0px" y="0px"
	 viewBox="0 0 497.4 151.9" style="enable-background:new 0 0 497.4 151.9;" xml:space="preserve">
<style type="text/css">
	.st0{fill:#1E3791;}
</style>
<g id="Schriftzug">
	<path class="st0" d="M302.4,103v24.2h11.4l-0.1,3.3h-14.8V103H302.4z M245.7,103v27.5h15.7l0.1-3.3h-12.3v-9.5h10.1v-3h-10.1v-8.4
		H261l-0.1-3.3C260.9,103,245.7,103,245.7,103z M284.4,110.9c0-3.6-1.4-4.8-4.5-4.8h-4.8v9.7h4.7
		C282.9,115.8,284.4,114.6,284.4,110.9z M283,118l6.6,12.4h-4.1l-5.6-11.8h-4.8v11.8h-3.5V103h8.2c5.5,0,8.1,2.4,8.1,7.8
		C288,115.1,286.2,117.4,283,118z M226.9,127.4c3,0,4.7-1.2,4.7-5c0-3.4-1.5-4.8-4.8-4.8H221v9.8H226.9z M220.9,114.8h5.6
		c2.9,0,4.1-1.4,4.1-4.4c0-3.2-1.3-4.3-4.3-4.3h-5.5L220.9,114.8L220.9,114.8z M230.5,115.9c2.9,0.7,4.6,2.8,4.6,6.7
		c0,5-2.3,7.8-8.2,7.8h-9.3V103h9c5,0,7.6,2.2,7.6,6.8C234.1,113.2,232.6,115.1,230.5,115.9L230.5,115.9z M323.1,130.4h3.5V103h-1.8
		H323L323.1,130.4L323.1,130.4z M354.4,103v17.9l0.1,2.9h-0.1l-1.5-2.6L342,103h-3.2v27.5h3.1V112v-3h0.1l1.5,2.6l11.5,18.9h2.5V103
		H354.4z M406.1,74.8c-0.8,0.2-1.6,0.3-2.6,0.3c-4.2,0-5.7-1.8-5.7-8.9c0-7,1.5-8.9,6.4-8.9c2.1,0,4.3,0.4,6,1.1l0.6-5.1
		c-1.9-0.8-4.5-1.2-6.9-1.2c-8.5,0-12.1,4.4-12.1,14.3c0,9.6,3.2,14.2,11.9,14.2c2.8,0,5.7-0.6,7.6-1.5v-14h-5.2L406.1,74.8
		L406.1,74.8z M272.8,52.5h-2.9H267V80h5.9V52.5H272.8z M246.4,80h5.8V57.9h6.7l-0.1-5.4h-18.9l-0.1,5.4h6.7L246.4,80L246.4,80z
		 M224,75.3c-2.5,0-4.7-0.7-6.8-1.8l-0.8,5.1c2.1,1.2,4.8,1.9,7.7,1.9c5.9,0,9.4-3.2,9.4-8.6c0-9-11.4-7.4-11.4-11.8
		c0-1.5,0.9-2.7,4-2.7c1.9,0,3.8,0.4,5.9,1.1l0.7-5c-1.9-0.9-4.4-1.4-6.9-1.4c-6.3,0-9.2,3.6-9.2,8.2c0,9,11.4,7.4,11.4,11.9
		C227.9,74.2,226.7,75.3,224,75.3z M377.6,66.2l0.1,2.9h-0.1l-10.2-16.7h-4.9V80h5.1V65.5v-3h0.1l1.5,2.6l9.4,14.9h4.1V52.5h-5.1
		V66.2z M298,64h-9v-6.1h10.7l-0.1-5.4h-16.4V80h5.8V69.1h8.9L298,64z M352.6,70.6V52.5h-5.7v18.1c0,3.2-1.2,4.5-4.3,4.5
		c-3.1,0-4.4-1.4-4.4-4.5V52.5h-5.8v18.1c0,6.6,3.5,9.8,10.1,9.8S352.6,77.2,352.6,70.6z M324.9,52.5H306l-0.1,5.4h6.7V80h5.8V57.9
		h6.7L324.9,52.5z M342.7,28V0.5h-5.1v13.7l0.1,2.9h-0.1L327.5,0.5h-4.9V28h5.1V13.5v-3h0.1l1.5,2.6l9.4,14.9
		C338.6,28,342.7,28,342.7,28z M220.6,28h5.8V5.9h6.7L233,0.5h-18.9L214,5.9h6.7L220.6,28L220.6,28z M486.1,22.8v-6.5h9.1v-4.8h-9.1
		V5.7h10.8l-0.1-5.3h-16.4V28h16.9l0.1-5.2H486.1L486.1,22.8z M398.9,22.6h-10.1V0.5H383V28h15.8L398.9,22.6z M298,16.6h8.5V28h5.8
		V0.5h-5.8v10.7H298V0.5h-5.8V28h5.8V16.6z M258.4,22.8H247v-6.5h9.1v-4.8H247V5.7h10.8l-0.1-5.3h-16.4V28h16.9L258.4,22.8z
		 M367.7,14.2c0-7.3-1.2-8.8-5-8.8c-3.7,0-5,1.6-5,8.8c0,7.3,1.3,8.9,5,8.9C366.5,23.1,367.7,21.5,367.7,14.2z M362.8,28.4
		c-7.7,0-11-4.1-11-14.2C351.8,4,355,0,362.8,0s11,4,11,14.2C373.8,24.6,370.6,28.4,362.8,28.4z M464.1,28h5.9V0.5h-3h-2.9V28z
		 M277.5,28.4c2.2,0,4.5-0.5,6.2-1.4l-0.6-4.9c-1.4,0.6-2.9,1-4.7,1c-4.5,0-6.1-2-6.1-9.2c0-6.7,1.5-8.7,6-8.7
		c1.8,0,3.5,0.4,4.8,0.8l0.6-5.1c-1.4-0.6-3.8-1.1-5.8-1.1c-8,0-11.6,4.6-11.6,14C266.2,24,269.8,28.4,277.5,28.4z M421,14.2
		c0-7.3-1.2-8.8-5-8.8c-3.7,0-5,1.6-5,8.8c0,7.3,1.3,8.9,5,8.9C419.7,23.1,421,21.5,421,14.2z M427,14.2c0,10.4-3.2,14.2-11,14.2
		c-7.7,0-11-4.1-11-14.2C405,4,408.2,0,416,0S427,4.1,427,14.2z M449.2,22.8c-0.8,0.2-1.7,0.3-2.6,0.3c-4.2,0-5.7-1.8-5.7-8.9
		c0-7,1.5-8.9,6.4-8.9c2.1,0,4.3,0.4,6,1.1l0.6-5.1C452,0.5,449.3,0,447,0c-8.5,0-12.1,4.4-12.1,14.3c0,9.6,3.3,14.2,11.9,14.2
		c2.8,0,5.8-0.6,7.6-1.5V13.1h-5.2L449.2,22.8L449.2,22.8z"/>
</g>
<g id="Linienmarke_A1">
	<path class="st0" d="M8.1,104.5l2.3-1.4l39,6.1l-1.5,1.5L8.1,104.5z M110.9,58.8l-1.3,1.3l43.9,19.3l-0.4-2.1L110.9,58.8z
		 M94.1,51.4l-1.8,1.1l8.4,3.7l1.3-1.3L94.1,51.4z M186.7,91.6l-18.2,40.1L58.2,113l2.9-3.1l103.8,17.7L145.4,19.3L16.6,151.9
		L0,102.3l36.7-76.7l47.9,21.1L81,48.9L38.4,30.1L5.6,98.7l141.8-87.5l20.4,113.3L182,93.4l-18.4-8.1l-0.7-4.2L186.7,91.6z
		 M18.1,145.3L139.9,20L4.2,103.7L18.1,145.3z"/>
</g>
</svg>
